<svg id="レイヤー_1" data-name="レイヤー 1" xmlns="http://www.w3.org/2000/svg" viewBox="0 0 245.03 14.51"><defs><style>.cls-1{fill:#fff;}</style></defs><title>アートボード 1</title><path class="cls-1" d="M13.63,9.74a.19.19,0,0,0-.1-.13L8.3,6.95l2.16-1.4v.85a.37.37,0,0,0,.73,0V5.07l.42-.27V5.3a.37.37,0,0,0,.37.37h0a.37.37,0,0,0,.37-.37v-1l.46-.3V4.4a.37.37,0,0,0,.73,0V3.35A.37.37,0,0,0,13.36,3l-.91-.53a.37.37,0,0,0-.37.63l.33.19-.49.25-.85-.49a.37.37,0,1,0-.37.63l.44.25-.44.23L9.55,3.54a.37.37,0,1,0-.37.63l.73.42L7.5,5.83,7.36,3.12l.73.42a.37.37,0,1,0,.37-.63L7.31,2.25l0-.5L7.73,2a.37.37,0,0,0,.37-.64L7.24.88l0-.55.33.19a.36.36,0,0,0,.18,0,.37.37,0,0,0,.18-.68L7-.65a.36.36,0,0,0-.37,0l-.91.53a.37.37,0,1,0,.37.63L6.42.32l0,.55-.85.49A.37.37,0,0,0,5.9,2l.44-.25,0,.5-1.14.66a.37.37,0,1,0,.37.63l.73-.42L6.12,5.83,3.7,4.6l.73-.42a.37.37,0,1,0-.37-.63L2.93,4.2,2.48,4l.44-.25a.37.37,0,1,0-.37-.63l-.85.49-.49-.25.33-.19a.37.37,0,1,0-.37-.63L.26,3a.37.37,0,0,0-.18.32V4.4a.37.37,0,0,0,.73,0V4l.46.3v1a.37.37,0,0,0,.37.37h0A.37.37,0,0,0,2,5.3V4.79l.42.27V6.39a.37.37,0,0,0,.73,0V5.54l2.16,1.4L.1,9.61a.19.19,0,0,0-.1.13,1.58,1.58,0,0,0,.28,1.05,1.62,1.62,0,0,0,.78.77h.06a.19.19,0,0,0,.1,0L6,8.45,5.7,13.84a.19.19,0,0,0,.06.15,1.58,1.58,0,0,0,1.05.29A1.61,1.61,0,0,0,7.87,14a.19.19,0,0,0,.06-.15L7.64,8.45l4.77,3.09a.19.19,0,0,0,.1,0h.06a1.58,1.58,0,0,0,.77-.77A1.61,1.61,0,0,0,13.63,9.74Z"/><path class="cls-1" d="M31,7.09c0,4.77-2.86,7.63-7.11,7.63S17.1,11.48,17.1,7.33c0-4.34,2.79-7.59,7-7.59C28.6-.26,31,3.07,31,7.09Zm-10.47.17c0,2.86,1.33,4.86,3.52,4.86S27.57,10,27.57,7.2c0-2.62-1.22-4.86-3.48-4.86S20.56,4.45,20.56,7.26Z"/><path class="cls-1" d="M33.39,14.49V0h3.83l3,5.31a45.66,45.66,0,0,1,2.36,5h0a59.76,59.76,0,0,1-.26-6.06V0h3V14.49H41.94L38.85,8.9a49.14,49.14,0,0,1-2.51-5.12h-.09c.11,1.93.15,4,.15,6.34v4.36Z"/><path class="cls-1" d="M51.7,0V8.32c0,2.51,1,3.78,2.62,3.78S57,10.9,57,8.32V0h3.27V8.12c0,4.47-2.26,6.6-6,6.6s-5.78-2-5.78-6.64V0Z"/><path class="cls-1" d="M63.73,0H67V6.4h0c.32-.56.67-1.07,1-1.59L71.29,0h4L70.54,6.17l5,8.32h-3.8L68.2,8.23,67,9.76v4.73H63.73Z"/><path class="cls-1" d="M80.86,0V14.49H77.59V0Z"/><path class="cls-1" d="M97.62,14.1a9.61,9.61,0,0,1-3.7.62c-5,0-7.59-3.14-7.59-7.26,0-4.94,3.52-7.67,7.91-7.67a8.2,8.2,0,0,1,3.57.64L97.12,3a6.91,6.91,0,0,0-2.75-.54c-2.58,0-4.6,1.57-4.6,4.79,0,2.9,1.72,4.73,4.62,4.73a7.8,7.8,0,0,0,2.75-.47Z"/><path class="cls-1" d="M112.4,7.09c0,4.77-2.86,7.63-7.11,7.63s-6.81-3.25-6.81-7.39c0-4.34,2.79-7.59,7-7.59C110-.26,112.4,3.07,112.4,7.09Zm-10.47.17c0,2.86,1.33,4.86,3.52,4.86s3.48-2.11,3.48-4.92c0-2.62-1.22-4.86-3.48-4.86S101.94,4.45,101.94,7.26Z"/><path class="cls-1" d="M113.93,0h8.83V2.69h-5.57V6h5.2V8.66h-5.2v5.82h-3.27Z"/><path class="cls-1" d="M125,0h8.83V2.69H128.3V6h5.2V8.66h-5.2v5.82H125Z"/><path class="cls-1" d="M144.74,8.36h-5.33V11.8h6v2.69h-9.22V0h8.92V2.69h-5.65v3h5.33Z"/><path class="cls-1" d="M156,8.36h-5.33V11.8h6v2.69h-9.22V0h8.92V2.69h-5.65v3H156Z"/><path class="cls-1" d="M161.47,2.55a23.62,23.62,0,0,1,3.59-.25,6.08,6.08,0,0,1,3.86.94A3,3,0,0,1,170,5.75a3.16,3.16,0,0,1-2.11,2.92v.05a3,3,0,0,1,1.59,2.21c.37,1.36.73,2.92,1,3.38h-2.76a16,16,0,0,1-.81-2.78c-.34-1.5-.85-1.89-2-1.91h-.8v4.69h-2.67Zm2.67,5.13h1.06c1.35,0,2.14-.67,2.14-1.72s-.74-1.65-2-1.65a5.4,5.4,0,0,0-1.22.09Z"/><path class="cls-1" d="M183.06,8.23c0,3.93-2.35,6.28-5.86,6.28s-5.61-2.67-5.61-6.09c0-3.57,2.3-6.25,5.81-6.25C181.06,2.18,183.06,4.92,183.06,8.23Zm-8.62.14c0,2.35,1.1,4,2.9,4s2.87-1.73,2.87-4.05c0-2.16-1-4-2.87-4S174.44,6.05,174.44,8.37Z"/><path class="cls-1" d="M187.08,11.26l-.85,3.06h-2.78l3.63-11.93h3.54l3.72,11.93h-2.92l-.92-3.06Zm3-2-.74-2.53c-.21-.71-.43-1.59-.6-2.3h0c-.18.71-.35,1.61-.55,2.3l-.71,2.53Z"/><path class="cls-1" d="M195.82,11.54a6.82,6.82,0,0,0,3,.74c1.24,0,1.89-.51,1.89-1.29s-.57-1.17-2-1.66c-2-.71-3.29-1.81-3.29-3.54,0-2,1.72-3.57,4.51-3.57a7,7,0,0,1,3,.6L202.37,5a5.58,5.58,0,0,0-2.48-.57c-1.17,0-1.73.55-1.73,1.15,0,.76.65,1.1,2.21,1.68,2.11.78,3.08,1.88,3.08,3.56,0,2-1.52,3.7-4.8,3.7a7.78,7.78,0,0,1-3.38-.74Z"/><path class="cls-1" d="M207.79,4.66h-3.22V2.39h9.17V4.66h-3.26v9.66h-2.69Z"/><path class="cls-1" d="M222.8,9.27h-4.39v2.83h4.9v2.21h-7.59V2.39h7.34V4.6h-4.65V7.08h4.39Z"/><path class="cls-1" d="M225.33,2.55a23.61,23.61,0,0,1,3.59-.25,6.08,6.08,0,0,1,3.86.94,3,3,0,0,1,1.11,2.51,3.16,3.16,0,0,1-2.11,2.92v.05a3,3,0,0,1,1.59,2.21c.37,1.36.73,2.92,1,3.38h-2.76a16,16,0,0,1-.81-2.78c-.34-1.5-.85-1.89-2-1.91H228v4.69h-2.67ZM228,7.68h1.06c1.35,0,2.14-.67,2.14-1.72s-.74-1.65-2-1.65a5.39,5.39,0,0,0-1.22.09Z"/><path class="cls-1" d="M238.41,14.32V9.43l-3.77-7h3.1l1.2,2.87c.37.87.64,1.5.92,2.28h0c.27-.74.55-1.43.9-2.28L242,2.39h3l-3.93,7v5Z"/></svg>